<?xml version="1.0" standalone="no"?><!DOCTYPE svg PUBLIC "-//W3C//DTD SVG 1.1//EN" "http://www.w3.org/Graphics/SVG/1.1/DTD/svg11.dtd"><svg class="icon" width="200px" height="200.00px" viewBox="0 0 1024 1024" version="1.1" xmlns="http://www.w3.org/2000/svg"><path d="M510.7 511.6m-448.1 0a448.1 448.1 0 1 0 896.2 0 448.1 448.1 0 1 0-896.2 0Z" fill="#AADCDA" /><path d="M829.6 767.2c0 35.9-109.1 65-243.8 65-134.6 0-243.8-29.1-243.8-65s109.2-64.9 243.8-64.9c134.7-0.1 243.8 29 243.8 64.9z" fill="#58595B" /><path d="M448.1 403.2c4 40 27 65.8 57.6 86.2 22 14.7 54.6 6.4 65-8.3 12.2-11.6 17.7-30.3 3.2-52-23.9 18-67.1 4.2-73.5-27-8.7-50 32-83.9 72.2-97.8 110.4-32.1 199.7 82.3 177 191.3-19.5 81.7-73.4 142.6-156 157.9-12.1 2.4-24.1 3.5-35.9 3.5-14.5-1.5-11.5 1.1 5.7 1.5 12.3 0.3 24.9-0.5 37.6-2.3 77.5-10.5 135.8-51.3 174.7-112.6 24.5-41.5 34.6-88 31.6-133.3 0.1 5-3.7 3.1-10.2-16.8C767.2 289.3 652 214.2 546.3 256.3c-60.1 23.3-106.3 76.9-98.2 146.9z" fill="#FBCEC5" /><path d="M500.5 402c-8.7-50 32-83.9 72.2-97.8 110.4-32.1 199.7 82.3 177 191.3-19.5 81.7-73.4 142.6-156 157.9 92.9-7.9 156.7-78.9 168.8-162.1 19.7-135.6-85.3-231.8-195.7-199.8-40.2 13.9-95.7 59.8-80.8 108.3 14.3 46.7 69 72.2 87.9 29-23.8 18.2-67.1 4.4-73.4-26.8z" fill="#FBCEC5" /><path d="M775.8 543.5c24.5-41.5 34.6-88 31.6-133.3 0.1 5-3.7 3.1-10.2-16.8-29.9-104.2-145.1-179.3-250.8-137.2-60.4 23.4-106.6 77-98.4 147 4 40 27 65.8 57.6 86.2 22 14.7 54.6 6.4 65-8.3 12.2-11.6 17.7-30.3 3.2-52 8.4 21.6-2.8 55.7-35.9 57-23.8 1-75.1-25.2-82.8-90.9-4.4-37.1 18.3-102.1 99.4-133.4 106.2-40.9 210 50.7 237.9 136.8 6.5 19.9 9.9 90.9-14.5 132.5-38.9 61.3-99.3 114.7-176.8 125.1 77.5-10.5 135.8-51.4 174.7-112.7z" fill="#FBCEC5" /><path d="M342.8 452.1c0.5 3.9 1 7.8 1.7 11.7 2 11.8 5.6 7.1 11.4 21.4 47.5 116.2 215.6 165.3 305.3 65.4 33.4-41.5 47.5-103.4 16.3-151.5-24-35.5-68.3-56.5-101.4-30-17.5 11.9-20.9 43.5 0.3 56.8 11.7-0.5 43.7 1.9 48.7 40.7 6.2 49.1-41.3 89.5-100.9 83-59.6-6.5-105.8-50-124.4-105.3-20.7-67.8-1.4-139.5 47.2-190.6 40.1-40.8 93.7-60.9 147.3-59.5 4.8 0.1 0.3-0.6-4.9-1-56.9-3.4-114.5 14-162 50.1-63.7 50.6-90.6 129.6-84.6 208.8z" fill="#FBCEC5" /><path d="M435 576.9c-8.7-8.2-17.9-12.7-20.4-10L197.1 798.7c-2.5 2.7 2.6 11.5 11.3 19.7 8.7 8.2 17.9 12.7 20.4 10.1l217.5-231.8c2.5-2.8-2.5-11.6-11.3-19.8z" fill="#F3F4F5" /><path d="M435 576.9c-8.7-8.2-17.9-12.7-20.4-10l-48 51.1c11.2 10.6 26 17.4 42.4 18.3l37.2-39.7c2.6-2.7-2.4-11.5-11.2-19.7z" fill="#737273" /><path d="M661.1 550.6c33.4-41.5 47.5-103.4 16.3-151.5-24-35.5-68.3-56.5-101.4-30-17.5 11.9-20.9 43.5 0.3 56.8-11.8-15.6 2.7-35 17.3-41.9 12.3-2.1 50.8-16.5 80.6 47.1 10 21.3 9.2 64.6-24.2 106.1-89.7 99.8-233.9 51.4-281.4-64.7-5.7-14.2-10.2-35.9-10.7-39.8-5.9-79.2 37-141.6 77.1-182.2 30.4-30.8 97.4-60.7 154.3-57.3-56.9-3.4-114.5 14-162 50.1-63.6 50.7-90.5 129.7-84.5 208.9 0.5 3.9 1 7.8 1.7 11.7 2 11.8 5.6 7.1 11.4 21.4 47.3 116 215.5 165.1 305.2 65.3z" fill="#FBCEC5" /><path d="M625 466.6c6.2 49.1-41.3 89.5-100.9 83-59.6-6.5-105.8-50-124.4-105.3-20.7-67.8-1.4-139.5 47.2-190.6 40.1-40.8 93.7-60.9 147.3-59.5-53.6-1.4-112.6 13.9-155 52.3-65.4 59.3-75.6 134.7-57.9 203.4 16.9 66 88.9 121 148.8 124.5 96.3 5.5 130.7-65.9 127.5-115.3-2.7-43.4-55.5-73.1-81.3-33.1 11.8-0.6 43.8 1.8 48.7 40.6z" fill="#FBCEC5" /><path d="M346.1 470.8c24.8 110.7 130.1 205.9 247.6 182.7 82.6-15.3 136.5-76.2 156-158 22.7-109-66.5-223.4-177-191.3-40.2 13.9-80.9 47.8-72.2 97.8 6.7 32.6 53.6 46.2 76.6 24.4-22.1-13-18.8-45.3-1-57.3 33.1-26.6 77.4-5.5 101.3 30 31.2 48.1 17.1 110-16.3 151.5-89.7 99.8-257.8 50.7-305.3-65.4-5.7-14.3-10.8-19.3-9.7-14.4z" fill="#F48B8C" /><path d="M576.1 369.1c33.1-26.6 77.4-5.5 101.3 30 31.2 48.1 17.1 110-16.3 151.5-89.7 99.8-257.8 50.7-305.3-65.4-5.3-13.1-10-18.3-9.8-15.3 0.8 1.7 3.6 8.2 7.4 17.8C404.3 613.2 578.7 671 682 560.8c33.4-41.5 63.5-110.4 12.3-179.8-25.4-34.5-91-71.3-133.5-21.5-21 24.6-14.7 69.1 16.3 66.8-22.1-13-18.8-45.2-1-57.2z" fill="#F48B8C" /><path d="M749.7 495.5c22.7-109-66.5-223.4-177-191.3-40.2 13.9-80.9 47.8-72.2 97.8 6.7 32.6 53.6 46.2 76.6 24.4-23 21.8-58.3-13.6-57.2-39.9 0.9-20.6 11.2-54 50.7-69.7 89.7-35.5 193.9 57.6 171.2 166.6C722.3 565 661 627.1 596.6 638c-118.1 20.1-214.7-61.5-250.5-167.3 24.8 110.7 130.1 205.9 247.6 182.7 82.6-15.3 136.5-76.2 156-157.9z" fill="#F48B8C" /><path d="M807.5 410.1c-0.3-11.6-2.9-24-5.3-35.2-11.8-54-46.9-101.3-88.3-136.9-80.6-64.3-195.3-57.3-266.9 15.6-48.6 51.1-67.9 122.8-47.2 190.6 18.5 55.2 64.8 98.8 124.4 105.3 59.6 6.5 107.1-33.8 100.9-83-6-47.7-52.9-40.4-52.9-40.4 16.9 22.9 11.4 42.6-1.4 54.8-10.3 14.7-42.9 23-65 8.3-30.6-20.4-53.6-46.2-57.6-86.2-8.2-69.9 38-123.6 98.4-146.9 105.7-42.2 220.8 33 250.8 137.2 6.4 20.1 10.2 21.9 10.1 16.8z" fill="#F48B8C" /><path d="M625 466.6c-4.9-38.9-37-41.2-48.7-40.7 10.8-0.4 31.5 5.2 36.3 43.6 6.2 49.1-57 81.2-101.6 63-45.2-18.4-78.4-48.4-96.9-103.7-20.7-67.8-0.5-109.7 48.1-160.7 71.6-72.9 166.1-89.3 246.7-25 41.4 35.7 81.3 77.9 93.1 131.8-11.8-54-46.9-101.3-88.3-136.9-80.6-64.3-195.3-57.3-266.9 15.6-48.6 51.1-67.9 122.8-47.2 190.6 18.5 55.2 64.8 98.8 124.4 105.3 59.8 6.6 107.3-33.7 101-82.9z" fill="#F48B8C" /><path d="M807.2 412c-0.8 0.9-0.7-7.5-5.1-23.8C766 256.1 639.4 202 533.7 244.1c-60.4 23.4-107 66.8-103.7 137.2 2.6 53.8 32.2 101.8 63.7 120.8 31 18.8 72.1 20.1 92.4-6.7 25.4-33.3 3.3-68.6-14-69.2 16.9 22.9 11.4 42.6-1.4 54.8-10.3 14.7-42.9 23-65 8.3-30.6-20.4-53.6-46.2-57.6-86.2-8.2-69.9 38-123.6 98.4-146.9 105.7-42.2 220.8 33 250.8 137.2 5.5 16.7 9 20.7 9.9 18.6z" fill="#F48B8C" /></svg>