<?xml version="1.0" standalone="no"?><!DOCTYPE svg PUBLIC "-//W3C//DTD SVG 1.1//EN" "http://www.w3.org/Graphics/SVG/1.1/DTD/svg11.dtd"><svg t="1524727594115" class="icon" style="" viewBox="0 0 1024 1024" version="1.1" xmlns="http://www.w3.org/2000/svg" p-id="6913" xmlns:xlink="http://www.w3.org/1999/xlink" width="200" height="200"><defs><style type="text/css"></style></defs><path d="M510.7 511.6m-448.1 0a448.1 448.1 0 1 0 896.2 0 448.1 448.1 0 1 0-896.2 0Z" fill="#AADCDA" p-id="6914"></path><path d="M824.3 740.2c0 46.1-140.1 83.4-312.9 83.4-172.8 0-312.9-37.3-312.9-83.4 0-46.1 140.1-83.4 312.9-83.4 172.8 0.1 312.9 37.4 312.9 83.4z" fill="#58595B" p-id="6915"></path><path d="M820.2 516.4c-6.2-17.6-5.5-48.5-6.4-93.7-0.4-20.6-11.2-33.7-22.8-41.9-6-18.5-16.2-35.2-30.9-49.2-0.2-0.8-0.4-1.6-0.5-2.3-3.5-18.9-21-66.7-62.2-77.6-41.2-10.9-80-31.1-99.5-46-19.6-14.9-72.8-21.4-120.9 2.2-1.9 0.9-3.7 1.8-5.6 2.8-30-2.1-60.3-8.1-86.3 11.1-31.1 23-68 34.6-95.3 63-6.2 6.5-8.7 13.7-8.7 20.7-4.3 5.5-8.1 11.3-11.1 17.5-0.6 0.8-1.2 1.5-1.6 2.4-8.8 5.3-19.9 16.6-24.9 41.2-9 44.1-13.9 74.7-23.2 90.7-9.3 16.1-26.6 62.7-3.4 98.6 23.1 35.9 38.6 76.9 43.5 101 4.9 24.1 39.5 65 89.3 80.4 49.7 15.4 104.1 33.9 125.6 47.8 21.5 13.9 81.2 16.6 115.3-3.4 0.4-0.2 0.7-0.4 1-0.6 9.4-0.1 18.6-1.7 27.1-6.7 3.1-1.9 5.9-4.1 8.6-6.5 5.2-0.6 10.4-1.2 15.5-1.7 51.6-5.4 93-38.8 102.1-61.6 9.2-22.7 31.8-60 60.9-90.7 29.2-30.7 20.6-79.9 14.4-97.5z m-366 81.4c-19.6-5.8-33.2-21.3-35.1-30.4-1.9-9.1-8-24.6-17.1-38.2-9.1-13.5-2.3-31.2 1.4-37.2 3.7-6.1 5.6-17.6 9.1-34.3 2-9.5 6.5-14.6 10-16.5 2.9-6.1 7.9-7.2 13.4-16.2h0.1c21.2 0 39.9-1.7 58.9-13.1 9.1-5.5 17-12.7 25.5-19.4 13.5-2.2 25.8 0.3 31.3 4.3 7.7 5.6 22.9 13.4 39.1 17.5 16.2 4.1 23.1 22.2 24.4 29.3 0.8 4.3 3.6 9.8 7.5 16.8 5.9 2.6 13.6 7.9 13.8 18.5 0.3 17 0.1 28.8 2.5 35.4 2.4 6.7 5.8 25.3-5.7 36.9-11.4 11.6-20.3 25.7-23.9 34.3-1.3 3-4.2 6.5-8.2 9.9-10.6 2-21.2 2.5-32.1 5.1-11.8 2.8-18.9 10.1-26.6 16.8-13.5 4.5-31.9 3.2-39.1-1.4-8.3-5.3-29.6-12.2-49.2-18.1z" fill="#F3F4F5" p-id="6916"></path><path d="M639.1 480.3c-2.5-6.6-2.2-18.3-2.5-35.4-0.2-10.6-7.9-15.9-13.8-18.5-4-7-6.7-12.5-7.5-16.8-1.3-7.1-8.2-25.3-24.4-29.3-16.2-4.1-31.4-11.9-39.1-17.6-5.5-4-17.8-6.6-31.3-4.4-8.5 6.7-16.4 11.6-25.5 17.1-19 11.4-37.8 10.6-59 10.6h-0.1c-5.5 9-10.5 12.6-13.4 18.7-3.5 1.9-8 8.4-10 17.9-3.5 16.7-5.4 28.8-9.1 34.8-3.6 6-10.3 23.7-1.5 37.2 0.5-1.1 1.1-2 1.5-2.8 3.7-6.1 5.6-17.5 9.1-34.2 2-9.5 6.5-14.6 10-16.5 2.9-6.1 7.9-7.2 13.4-16.2h0.1c21.2 0 39.9-1.7 58.9-13.1 9.1-5.5 17-12.7 25.5-19.4 13.5-2.2 25.8 0.3 31.3 4.3 7.7 5.6 22.9 13.4 39.1 17.5 16.2 4.1 23.1 22.2 24.4 29.3 0.8 4.3 3.6 9.8 7.5 16.8 5.9 2.6 13.6 7.9 13.8 18.5 0.3 14.1 0.2 24.5 1.5 31.5 5.6-10.9 3.1-24.5 1.1-30zM805.8 580c-29.2 30.7-51.8 68-60.9 90.7-9.2 22.7-50.5 56.2-102.1 61.6-5.1 0.5-10.3 1.2-15.5 1.7-2.6 2.4-5.4 4.6-8.6 6.4-8.6 5-17.7 6.6-27.1 6.7-0.4 0.2-0.7 0.4-1 0.6-34.1 20-93.9 17.3-115.3 3.4-21.4-13.9-75.8-32.4-125.6-47.8-49.7-15.4-84.3-56.3-89.3-80.4-4.9-24.1-20.4-65.1-43.5-101-5.2-8.1-8.3-16.7-10-25.5-3.1 18.8-2.2 40.6 10 59.5 23.1 35.9 38.6 76.9 43.5 101 4.9 24.1 39.5 65 89.3 80.4 49.7 15.4 104.1 33.9 125.6 47.8 21.5 13.9 81.2 16.6 115.3-3.4 0.4-0.2 0.7-0.4 1-0.6 9.4-0.1 18.6-1.7 27.1-6.7 3.1-1.9 5.9-4.1 8.6-6.5 5.2-0.6 10.4-1.2 15.5-1.7 51.6-5.4 93-38.8 102.1-61.6 9.2-22.7 31.8-60 60.9-90.7 20.9-22 22.4-53.4 19.3-76-2.2 14.9-7.8 29.9-19.3 42.1z" fill="#DDDCDC" p-id="6917"></path><path d="M685.2 330.9c0 15-12.2 27.2-27.2 27.2s-27.2-12.2-27.2-27.2 12.2-27.2 27.2-27.2 27.2 12.2 27.2 27.2z" fill="#4AB4AE" p-id="6918"></path><path d="M746.4 358.1c0 15-12.2 27.2-27.2 27.2S692 373.1 692 358.1s12.2-27.2 27.2-27.2 27.2 12.2 27.2 27.2z" fill="#F48B8C" p-id="6919"></path><path d="M692 392.1c0 15-12.2 27.2-27.2 27.2s-27.2-12.2-27.2-27.2 12.2-27.2 27.2-27.2c15.1 0 27.2 12.2 27.2 27.2z" fill="#8081BE" p-id="6920"></path><path d="M678.4 562.1c15 0 27.2 12.2 27.2 27.2s-12.2 27.2-27.2 27.2-27.2-12.2-27.2-27.2c0.1-15 12.2-27.2 27.2-27.2z" fill="#4AB4AE" p-id="6921"></path><path d="M705.6 500.9c15 0 27.2 12.2 27.2 27.2s-12.2 27.2-27.2 27.2-27.2-12.2-27.2-27.2 12.2-27.2 27.2-27.2z" fill="#F48B8C" p-id="6922"></path><path d="M739.6 555.3c15 0 27.2 12.2 27.2 27.2s-12.2 27.2-27.2 27.2-27.2-12.2-27.2-27.2 12.2-27.2 27.2-27.2z" fill="#8081BE" p-id="6923"></path><path d="M359 294.2c10.4 10.8 10.1 28-0.8 38.5-10.8 10.4-28 10.1-38.4-0.8-10.4-10.8-10.1-28 0.8-38.4 10.8-10.5 28-10.1 38.4 0.7z" fill="#4AB4AE" p-id="6924"></path><path d="M422 271.4c10.4 10.8 10.1 28-0.8 38.4-10.8 10.4-28 10.1-38.4-0.8-10.4-10.8-10.1-28.1 0.8-38.4 10.8-10.4 28-10 38.4 0.8z" fill="#F48B8C" p-id="6925"></path><path d="M406.4 333.6c10.4 10.8 10.1 28-0.8 38.5-10.8 10.4-28 10.1-38.5-0.8-10.4-10.8-10.1-28 0.8-38.4 10.8-10.5 28-10.1 38.5 0.7z" fill="#8081BE" p-id="6926"></path><path d="M319.9 545.5c5.9 13.8-0.4 29.8-14.2 35.7-13.8 5.9-29.8-0.5-35.7-14.2-5.9-13.8 0.5-29.8 14.2-35.7 13.8-6 29.8 0.4 35.7 14.2z" fill="#4AB4AE" p-id="6927"></path><path d="M386.9 546.3c5.9 13.8-0.4 29.8-14.2 35.7-13.8 5.9-29.8-0.5-35.7-14.2-5.9-13.8 0.5-29.8 14.2-35.7 13.7-5.9 29.7 0.4 35.7 14.2z" fill="#F48B8C" p-id="6928"></path><path d="M350.3 599c5.9 13.8-0.5 29.8-14.2 35.7-13.8 5.9-29.8-0.5-35.7-14.3-5.9-13.8 0.4-29.8 14.2-35.7 13.8-5.8 29.8 0.5 35.7 14.3z" fill="#8081BE" p-id="6929"></path><path d="M457.8 267.2c1.2-0.1 2.4-0.4 3.6-0.9l6.4-2.6c7-2.9 10.5-11.4 7.7-19.1-2.7-7.7-10.7-11.6-17.6-8.7l-6.4 2.7c-7 2.9-10.5 11.5-7.7 19.1 2.3 6.3 8.1 10.1 14 9.5zM246.8 500.7c1.2-0.1 2.4-0.4 3.6-0.9l6.4-2.6c7-2.9 10.5-11.4 7.7-19.1-2.7-7.7-10.7-11.6-17.6-8.7l-6.4 2.7c-7 2.9-10.5 11.5-7.7 19.1 2.3 6.3 8.1 10.1 14 9.5zM340.8 687.8c1.2-0.1 2.4-0.4 3.6-0.9l6.4-2.6c7-2.9 10.5-11.4 7.7-19.1-2.7-7.7-10.7-11.6-17.6-8.7l-6.5 2.7c-7 2.9-10.5 11.5-7.7 19.1 2.3 6.3 8.2 10 14.1 9.5zM667.3 708.6c1.2-0.1 2.4-0.4 3.6-0.9l6.4-2.6c7-2.9 10.5-11.4 7.7-19.1-2.7-7.7-10.7-11.6-17.6-8.7l-6.5 2.7c-7 2.9-10.5 11.5-7.7 19.1 2.4 6.4 8.2 10.1 14.1 9.5zM784.6 556c1.2-0.1 2.4-0.4 3.6-0.9l6.4-2.6c7-2.9 10.5-11.4 7.7-19.1-2.7-7.7-10.7-11.6-17.6-8.7l-6.4 2.7c-7 2.9-10.5 11.5-7.7 19.1 2.2 6.3 8.1 10.1 14 9.5zM474 346.8c1.1-0.5 2.1-1.3 3-2.2l4.9-4.8c5.4-5.3 5.5-14.5 0-20.6-5.4-6.2-14.3-6.8-19.6-1.5l-5 4.9c-5.4 5.3-5.4 14.5 0 20.6 4.6 5 11.5 6.3 16.7 3.6zM564.5 242.3c1.1-0.6 2.1-1.3 3-2.2l4.9-4.8c5.4-5.3 5.5-14.5 0-20.6-5.4-6.2-14.3-6.8-19.6-1.5l-5 4.9c-5.4 5.3-5.4 14.5 0 20.6 4.6 5 11.5 6.3 16.7 3.6zM673.5 471.7c1.1-0.5 2.1-1.3 3-2.2l4.9-4.8c5.4-5.3 5.5-14.5 0-20.6-5.4-6.2-14.3-6.8-19.6-1.5l-5 4.9c-5.4 5.3-5.4 14.5 0 20.6 4.6 5 11.4 6.3 16.7 3.6zM365.6 425c1 0.7 2.1 1.2 3.4 1.5l6.6 1.9c7.3 2.1 15.3-2.5 17.8-10.3 2.6-7.8-1.3-15.7-8.5-17.8l-6.7-1.9c-7.3-2-15.3 2.6-17.8 10.4-2.1 6.4 0.2 13 5.2 16.2zM494.1 292.7c0.5 1.1 1.3 2.1 2.1 3l4.7 5c5.2 5.6 14.4 5.8 20.6 0.4 6.3-5.3 7.1-14.1 1.9-19.6l-4.8-5.1c-5.2-5.5-14.4-5.7-20.6-0.4-5 4.6-6.5 11.4-3.9 16.7zM711.5 478.7c0.5 1.1 1.3 2.1 2.1 3l4.7 5c5.2 5.5 14.4 5.8 20.6 0.4 6.2-5.3 7.1-14.1 1.9-19.6l-4.8-5.1c-5.2-5.5-14.4-5.7-20.6-0.4-5.1 4.6-6.5 11.4-3.9 16.7zM277 352.8c0.5 1.1 1.3 2.1 2.1 3l4.7 5c5.2 5.6 14.4 5.8 20.6 0.5 6.2-5.3 7.1-14.1 1.9-19.6l-4.8-5.1c-5.2-5.5-14.4-5.7-20.6-0.4-5.1 4.5-6.6 11.3-3.9 16.6zM758 413.8c0.5 1.1 1.3 2.1 2.1 3l4.7 5c5.2 5.6 14.4 5.8 20.6 0.4 6.2-5.3 7.1-14.1 1.9-19.6l-4.8-5.1c-5.2-5.5-14.4-5.7-20.6-0.4-5.1 4.6-6.6 11.4-3.9 16.7zM307.4 449.9c0.5 1.1 1.3 2.1 2.1 3l4.7 5c5.2 5.6 14.4 5.8 20.6 0.4 6.2-5.3 7.1-14.1 1.9-19.6l-4.8-5.1c-5.2-5.5-14.4-5.7-20.6-0.4-5.1 4.6-6.6 11.4-3.9 16.7zM676.2 293.5c1.1 0.6 2.3 1 3.5 1.2l6.8 1.2c7.5 1.4 15-4 16.8-12 1.9-8-2.8-15.5-10.2-16.8l-6.9-1.2c-7.5-1.3-15 4.1-16.7 12-1.5 6.6 1.5 13 6.7 15.6zM540.6 335.2c0.5 1.1 1.3 2.1 2.1 3l4.7 5c5.2 5.6 14.4 5.8 20.6 0.4 6.3-5.3 7.1-14.1 1.9-19.6l-4.8-5.1c-5.2-5.5-14.4-5.7-20.6-0.4-5.1 4.5-6.5 11.4-3.9 16.7zM343.9 500.8c0.5 1.1 1.3 2.1 2.1 3l4.7 5c5.2 5.6 14.4 5.8 20.6 0.4 6.2-5.3 7.1-14.1 1.9-19.6l-4.8-5.1c-5.2-5.5-14.4-5.7-20.6-0.4-5.1 4.6-6.5 11.4-3.9 16.7zM396 667.8c0.5 1.1 1.2 2.1 2.1 3l4.7 5c5.2 5.6 14.4 5.8 20.6 0.4 6.2-5.3 7.1-14.1 1.9-19.6l-4.8-5.1c-5.2-5.5-14.4-5.7-20.6-0.4-5.1 4.5-6.6 11.4-3.9 16.7zM602.7 667.8c0.5 1.1 1.3 2.1 2.1 3l4.7 5c5.2 5.6 14.4 5.8 20.6 0.4 6.2-5.3 7.1-14.1 1.9-19.6l-4.8-5.1c-5.2-5.5-14.4-5.7-20.6-0.4-5.1 4.5-6.6 11.4-3.9 16.7z" fill="#DDDCDC" p-id="6930"></path><path d="M523.7 598S457.3 644.1 414 726.5s-7.2 39.4 36.2 94.2c43.3 54.8 28-128.1 73.5-222.7z" fill="#F48B8C" p-id="6931"></path><path d="M514.1 605.3c-38.1 88.6-25.8 247.2-64.6 198.1-28.1-35.6-52.9-26.4-51.1-44.5-15 38 15.9 16.4 51.8 61.8 43.4 54.8 28.1-128.1 73.6-222.7-0.1 0-3.7 2.5-9.7 7.3z" fill="#F16C6E" p-id="6932"></path><path d="M514.7 598s66.4 46.1 109.7 128.5 7.2 39.4-36.2 94.2c-43.3 54.8-28.1-128.1-73.5-222.7z" fill="#F48B8C" p-id="6933"></path><path d="M524.3 605.3c38.1 88.6 25.8 247.2 64.6 198.1 28.1-35.6 52.9-26.4 51.1-44.5 15 38-15.9 16.4-51.8 61.8-43.4 54.8-28.1-128.1-73.6-222.7 0.1 0 3.7 2.5 9.7 7.3z" fill="#F16C6E" p-id="6934"></path><path d="M524.9 632.3c6.5-1-70.5-108.9-118.3-67-47.7 41.8-33 89.7 118.3 67z" fill="#F48B8C" p-id="6935"></path><path d="M493.5 629.9s-20.2 18.9-31.6 48.2c0 0 13.1-22.8 28-33.9 0 0-17.3 44.7-17.6 76.3 0 0 19.1-71.6 30.5-81.3 11.4-9.6-1.1-18.4-9.3-9.3z" fill="#F16C6E" p-id="6936"></path><path d="M499.4 629.7s-67.6 9.3-101.6-9c-33.9-18.2 38.6-33.5 101.6 9z" fill="#F16C6E" p-id="6937"></path><path d="M403.3 575.7s25.3-47.2 99 26.7c0 0-64.2-50.6-99-26.7z" fill="#F48B8C" p-id="6938"></path><path d="M513.5 632.3c-6.5-1 70.5-108.9 118.3-67 47.7 41.8 33 89.7-118.3 67z" fill="#F48B8C" p-id="6939"></path><path d="M544.9 629.9s20.2 18.9 31.7 48.2c0 0-13.1-22.8-28-33.9 0 0 17.3 44.7 17.6 76.3 0 0-19.1-71.6-30.5-81.3-11.5-9.6 1-18.4 9.2-9.3z" fill="#F16C6E" p-id="6940"></path><path d="M539 629.7s67.6 9.3 101.6-9c33.9-18.2-38.6-33.5-101.6 9z" fill="#F16C6E" p-id="6941"></path><path d="M635 575.7s-25.3-47.2-99 26.7c0.1 0 64.3-50.6 99-26.7z" fill="#F48B8C" p-id="6942"></path><path d="M550.8 622.4c0 22.3-14.2 24.9-31.6 24.9-17.5 0-31.6-2.6-31.6-24.9s14.2-35.2 31.6-35.2c17.5 0 31.6 12.9 31.6 35.2z" fill="#DDDCDC" p-id="6943"></path><path d="M540.3 595.1c3.5 4.9 5.6 11.4 5.6 19.3 0 18.8-12 21-26.7 21s-26.7-2.2-26.7-21c0-7.9 2.1-14.4 5.6-19.3-6.5 6-10.6 15.3-10.6 27.3 0 22.3 14.2 24.9 31.6 24.9 17.5 0 31.6-2.6 31.6-24.9 0.1-12-4-21.2-10.4-27.3z" fill="#DDDCDC" p-id="6944"></path><path d="M536.1 597.5c0 2.2-7.5 0.5-16.9 0.5-9.3 0-16.9 1.8-16.9-0.5s7.5-7.7 16.9-7.7c9.3 0.1 16.9 5.5 16.9 7.7z" fill="#F3F4F5" p-id="6945"></path></svg>