<?xml version="1.0" standalone="no"?><!DOCTYPE svg PUBLIC "-//W3C//DTD SVG 1.1//EN" "http://www.w3.org/Graphics/SVG/1.1/DTD/svg11.dtd"><svg class="icon" width="200px" height="200.00px" viewBox="0 0 1024 1024" version="1.1" xmlns="http://www.w3.org/2000/svg"><path d="M510.7 511.6m-448.1 0a448.1 448.1 0 1 0 896.2 0 448.1 448.1 0 1 0-896.2 0Z" fill="#AADCDA" /><path d="M741.5 771.6c0 33.7-102.5 61-229 61-126.4 0-229-27.3-229-61s102.5-61 229-61 229 27.3 229 61z" fill="#58595B" /><path d="M608.2 712.3c0 75.5-42.8 74.7-95.6 74.7s-95.6 0.7-95.6-74.7c0-75.5 42.8-207.1 95.6-207.1s95.6 131.6 95.6 207.1z" fill="#B57969" /><path d="M378.6 610c-38.9 74.5-66.2 76.9-94.2 69.2-28.1-7.7-57.9-31.3-7.3-97.2 62.7-81.7 120.1-180.2 148.2-172.5 28 7.8-7.8 126-46.7 200.5zM530 616.2c-3.1 82.1-27.1 93.8-56.4 96.5-29.2 2.6-67-8.8-49.3-86.9 21.9-97 31.5-207.7 60.7-210.3 29.2-2.7 48.2 118.6 45 200.7z" fill="#F3F4F5" /><path d="M382 492.9c23.1-79.5 49.5-86.3 78.6-83.2 29.1 3.1 63.3 21.5 27 94.4-45.1 90.5-81.5 196.6-110.7 193.5-29.1-3.1-18-125.2 5.1-204.7zM665.2 624.2c35.4 62 58.6 63.3 82.1 56 23.5-7.3 47.9-28.1 2.9-82.5-55.9-67.5-107.8-149.3-131.2-142-23.5 7.4 10.8 106.5 46.2 168.5z" fill="#F3F4F5" /><path d="M565 496c-23.1-79.5-49.4-86.3-78.6-83.2-29.1 3.1-63.2 21.5-26.9 94.4 45.1 90.4 81.5 196.5 110.6 193.5 29.2-3.1 18-125.1-5.1-204.7z" fill="#F3F4F5" /><path d="M583 627.5c13.4 64.4 33.9 71.1 57.2 70.1 23.4-1 51.7-14 27.3-73.7-30.2-74.1-52.5-160.3-75.8-159.3-23.3 0.9-22.1 98.5-8.7 162.9z" fill="#F3F4F5" /><path d="M758.5 608.7c2.3 19.4-12.1 28.9-26 33.3-20.6 6.4-41 5.6-70.7-42.2 15.3 46.9-9.1 57.5-29.5 58.4-19.5 0.8-36.9-4.1-49.3-47.9-0.2 29-5 49.6-16.4 50.9-12.1 1.3-25.6-17.6-40.6-46.5-7.5 47.5-27 55.6-49.8 57.7-24.6 2.2-55.8-6.2-49.7-61.4-15.1 29.3-28.7 48.7-41 47.4-11.5-1.4-16.3-22.4-16.5-52-27.3 39.9-48.6 40.5-70.3 34.5-18.4-5.1-37.6-17.4-31.2-45.5-36.8 55.7-9.2 76.6 16.9 83.8 23.1 6.4 45.8 5.8 75-36.8 0.1 31.5 5.2 53.9 17.5 55.2 13.1 1.4 27.6-19.2 43.7-50.5-6.5 58.9 26.7 67.9 53 65.5 24.4-2.2 45.2-10.8 53.2-61.5 15.9 30.8 30.3 51 43.2 49.6 12.2-1.3 17.3-23.3 17.5-54.3 13.2 46.7 31.8 52 52.6 51.1 21.8-1 47.9-12.3 31.5-62.3 31.8 51.1 53.5 51.8 75.5 45 22-6.7 44.6-25.2 11.4-71.5z" fill="#DDDCDC" /><path d="M694.2 544.7c20 34.1 32.4 63.5 27.7 65.7-4.7 2.2-24.7-23.7-44.7-57.8-19.9-34.1-32.3-63.5-27.6-65.8 4.6-2.2 24.7 23.7 44.6 57.9z" fill="#F3F2F2" /><path d="M326.6 544c-24.4 31.7-40.6 59.7-36.2 62.3 4.4 2.7 27.7-20.9 52.1-52.7 24.4-31.8 40.5-59.7 36.2-62.4-4.4-2.6-27.8 21-52.1 52.8z" fill="#DDDCDC" /><path d="M403.8 546.3c-12.5 36.8-18.6 67.8-13.5 69.2 5.1 1.4 19.4-27.4 31.9-64.2 12.5-36.8 18.6-67.8 13.5-69.2-5-1.3-19.3 27.4-31.9 64.2z" fill="#F3F2F2" /><path d="M469.6 557.2c-9.4 37.5-12.8 68.8-7.7 69.9 5.1 1 17-28.6 26.4-66.1 9.4-37.6 12.8-68.8 7.7-69.9-5.2-1-17 28.6-26.4 66.1zM553.9 557.2c9.4 37.5 12.8 68.8 7.7 69.9-5.2 1-17-28.6-26.4-66.1-9.4-37.6-12.8-68.8-7.6-69.9 5.1-1 17 28.6 26.3 66.1z" fill="#DDDCDC" /><path d="M616.2 551.4c11.3 37.2 16.3 68.3 11.2 69.5-5.1 1.2-18.4-27.9-29.7-65-11.2-37.1-16.3-68.2-11.1-69.5 5-1.2 18.3 28 29.6 65z" fill="#F3F2F2" /><path d="M433.7 469c-38.9 74.4-66.2 76.9-94.2 69.2-28-7.8-57.8-31.3-7.2-97.2 62.7-81.7 120.1-180.2 148.1-172.4 28 7.7-7.8 125.9-46.7 200.4z" fill="#F3F4F5" /><path d="M563.1 466.5c0.8 82.1-22.7 94.8-51.7 98.5-29 3.7-67.4-6.2-53.4-85 17.3-97.8 21.6-208.7 50.7-212.4 28.9-3.7 53.6 116.8 54.4 198.9z" fill="#F3F4F5" /><path d="M420.5 352c23.1-79.6 49.4-86.3 78.6-83.3 29.1 3.1 63.2 21.6 26.9 94.4-45.1 90.4-81.5 196.6-110.6 193.5-29.2-3.1-18-125.1 5.1-204.6z" fill="#F3F4F5" /><path d="M583.6 469c38.9 74.4 66.2 76.9 94.2 69.2 28-7.8 57.9-31.3 7.3-97.2C622.3 359.3 565 260.8 537 268.5c-28.1 7.8 7.8 126 46.6 200.5z" fill="#F3F4F5" /><path d="M594 349.4c-23.1-79.5-49.4-86.3-78.6-83.2-29.1 3.1-63.2 21.5-26.9 94.4C533.6 451 569.9 557.1 599.1 554c29.1-3.1 18-125.1-5.1-204.6z" fill="#F3F4F5" /><path d="M699.8 462.6c2.8 24.3-15.1 35.4-32.2 40.1-18.5 5.1-36.5 5.4-58.3-18.8-1.8 19.8-6.7 32.8-15.6 33.8-11.1 1.2-23.3-14.5-36.7-39.1-6.7 38.9-24.7 46.7-45.8 49.4-22.8 2.9-51.5-3.1-52.9-48.1-13.6 25.3-26 41.4-37.3 40.2-8.9-0.9-13.8-13.8-15.6-33.3-20.6 21.4-38 20.9-55.6 16-17.2-4.7-35.1-15.8-32.2-40.1-28.9 49.6-2.8 68.8 21.9 75.6 18.9 5.2 37.3 5.8 59.2-17 1.9 20.8 7.2 34.4 16.7 35.4 11.9 1.3 25.2-15.9 39.7-42.8 1.4 47.9 32.1 54.4 56.3 51.3 22.5-2.9 41.5-11.1 48.7-52.6 14.3 26.2 27.3 42.8 39 41.6 9.6-1 14.8-14.9 16.7-35.9 23.2 25.8 42.4 25.4 62.1 20.1 24.6-7.1 50.7-26.3 21.9-75.8z" fill="#DDDCDC" /><path d="M641.2 405.9c19.9 34.1 32.3 63.6 27.6 65.7-4.7 2.2-24.7-23.7-44.6-57.8-20-34.1-32.4-63.6-27.7-65.7 4.7-2.2 24.7 23.7 44.7 57.8z" fill="#F3F2F2" /><path d="M576.3 404.6c9.8 37.5 13.7 68.7 8.5 69.8-5.2 1.1-17.3-28.4-27.2-65.9-9.9-37.5-13.7-68.7-8.5-69.8 5.1-1 17.3 28.5 27.2 65.9z" fill="#DDDCDC" /><path d="M375 412.9c-23.9 32-39.7 60.1-35.3 62.7 4.4 2.7 27.4-21.2 51.3-53.2s39.8-60.1 35.4-62.7c-4.5-2.7-27.5 21.2-51.4 53.2z" fill="#DDDCDC" /><path d="M433.9 411.1c-19.5 34.3-31.5 63.9-26.8 66 4.7 2.1 24.4-24 43.9-58.3s31.6-63.8 26.8-66c-4.7-2.1-24.3 23.9-43.9 58.3z" fill="#DDDCDC" /><path d="M513.2 409.3c-2 4.4-4.6 7.2-8 7.7-3.6 0.5-7.1-1.1-10.6-4.5-0.1 5.9 0 12.1 0.2 18.5 1.2 34.5 6.6 62.3 12.1 62.3 5.4-0.1 8.9-28 7.6-62.5-0.2-7.6-0.7-14.9-1.3-21.5z" fill="#F3F2F2" /><path d="M507.2 358.6c-26.2 61.7-58.5 62.8-94.4 55.2-36-7.6-97.3-48.1-35.8-82.8 61.5-34.6 94.8-148.4 130.8-140.8 35.9 7.6 25.6 106.7-0.6 168.4z" fill="#F3F4F5" /><path d="M501.6 358.6c26.2 61.7 58.4 62.8 94.4 55.2 35.9-7.6 97.3-48.1 35.8-82.8-61.5-34.6-94.7-148.4-130.7-140.8-36 7.6-25.7 106.7 0.5 168.4z" fill="#F3F4F5" /><path d="M647.9 342.8c-8.1 18.4-36.5 33.4-56.6 37.7-27.3 5.8-52.2 6.3-73.8-23.6-2.2 15.1-5.4 25.6-12.3 26.6-6.9 1.1-13.8-6.5-20-19-20.2 22.1-43 21.2-67.7 15.9-20.1-4.3-48.5-19.3-56.6-37.7-31.9 31.5 20.1 64.2 52 71 26 5.5 50.1 6.5 71.3-16.8 6.5 13.2 13.8 21.1 21.1 20 7.1-1.1 10.7-12.1 12.9-28 22.8 31.4 49.1 30.9 77.8 24.8 31.9-6.7 83.8-39.4 51.9-70.9z" fill="#DDDCDC" /><path d="M553.1 261.6c20 34.1 55.3 63.5 50.5 65.7-4.7 2.2-47.6-23.7-67.5-57.8-19.9-34.1-32.3-68.6-27.7-70.8 4.7-2.2 24.8 28.8 44.7 62.9zM538.6 293.9c16.2 35.7 50.8 60.4 45.9 62.2-4.9 1.8-47.6-20.1-63.8-55.8-16.1-35.7-24.6-71.1-19.7-72.9 4.9-1.8 21.4 30.8 37.6 66.5z" fill="#F3F2F2" /><path d="M448.5 302.2c24.9-31.4 33-69.3 28.7-72-4.3-2.7-19.5 30.7-44.4 62.2-25 31.4-58.8 48.9-54.5 51.6 4.4 2.6 45.3-10.4 70.2-41.8z" fill="#DDDCDC" /><path d="M482.6 304.8c14.6-36.2 11-74.6 6-76.2-5-1.6-9.5 34.3-24.1 70.5-14.6 36.2-42 61.1-37 62.7 5.1 1.5 40.5-20.8 55.1-57z" fill="#DDDCDC" /><path d="M415.4 392.7c-19.2 0-34.8 15.6-34.8 34.8 0 19.2 15.6 34.8 34.8 34.8s34.8-15.6 34.8-34.8c0-19.2-15.6-34.8-34.8-34.8z" fill="#F48B8C" /><path d="M419.2 417.1c0 8-6.5 14.5-14.5 14.5s-14.6-6.5-14.6-14.5 6.5-14.6 14.6-14.6c8 0 14.5 6.5 14.5 14.6z" fill="#F48B8C" /><path d="M432.6 399.9c3.1 5 4.8 10.8 4.8 17 0 18-14.6 32.6-32.6 32.6-6.3 0-12.1-1.8-17-4.8 5.7 9.3 16 15.5 27.7 15.5 18 0 32.6-14.6 32.6-32.6 0-11.6-6.2-21.9-15.5-27.7z" fill="#F48B8C" /><path d="M307.7 500.2c-17.8 0-32.1 14.4-32.1 32.1 0 17.8 14.4 32.1 32.1 32.1 17.7 0 32.1-14.4 32.1-32.1 0.1-17.7-14.3-32.1-32.1-32.1z" fill="#F48B8C" /><path d="M311.2 522.7c0 7.4-6 13.4-13.4 13.4s-13.5-6-13.5-13.4 6-13.4 13.5-13.4c7.4 0 13.4 6 13.4 13.4z" fill="#F48B8C" /><path d="M323.6 506.9c2.8 4.6 4.4 10 4.4 15.7 0 16.6-13.4 30.1-30.1 30.1-5.8 0-11.1-1.6-15.7-4.5 5.3 8.6 14.8 14.3 25.6 14.3 16.6 0 30.1-13.5 30.1-30.1 0-10.7-5.7-20.2-14.3-25.5z" fill="#F48B8C" /><path d="M592.1 414.1c-29.6 0-53.6 24-53.6 53.6s24 53.6 53.6 53.6 53.6-24 53.6-53.6-24-53.6-53.6-53.6z" fill="#4AB4AE" /><path d="M598 451.6c0 12.4-10 22.4-22.4 22.4-12.4 0-22.4-10.1-22.4-22.4 0-12.4 10-22.4 22.4-22.4 12.3 0 22.4 10 22.4 22.4z" fill="#4AB4AE" /><path d="M618.6 425.2c4.7 7.7 7.4 16.6 7.4 26.2 0 27.7-22.4 50.2-50.2 50.2-9.6 0-18.6-2.7-26.2-7.4 8.8 14.4 24.7 23.9 42.7 23.9 27.7 0 50.1-22.4 50.1-50.1 0.1-18.1-9.5-33.9-23.8-42.8z" fill="#2F8681" /><path d="M506.6 246.1c-33.2 0-60.1 26.9-60.1 60.1s26.9 60.1 60.1 60.1 60.1-26.9 60.1-60.1-26.9-60.1-60.1-60.1z" fill="#6B9AD1" /><path d="M513.1 288.1c0 13.9-11.3 25.1-25.1 25.1-13.9 0-25.2-11.3-25.2-25.1 0-13.9 11.3-25.2 25.2-25.2 13.9 0.1 25.1 11.3 25.1 25.2z" fill="#3E67A6" /><path d="M536.3 258.5c5.3 8.6 8.3 18.7 8.3 29.4 0 31.1-25.2 56.3-56.3 56.3-10.8 0-20.9-3-29.4-8.3 9.9 16.1 27.7 26.9 48 26.9 31.1 0 56.3-25.2 56.3-56.3-0.1-20.3-10.8-38.1-26.9-48z" fill="#3E67A6" /><path d="M588.8 573.3c-15.4 0-27.9 12.5-27.9 27.9s12.5 27.9 27.9 27.9c15.4 0 27.9-12.5 27.9-27.9s-12.4-27.9-27.9-27.9z" fill="#6B9AD1" /><path d="M591.9 592.9c0 6.5-5.2 11.7-11.7 11.7-6.5 0-11.7-5.2-11.7-11.7 0-6.5 5.2-11.7 11.7-11.7 6.5 0 11.7 5.2 11.7 11.7z" fill="#3E67A6" /><path d="M602.6 579.1c2.4 4 3.9 8.7 3.9 13.7 0 14.4-11.7 26.2-26.2 26.2-5 0-9.7-1.4-13.7-3.9 4.6 7.5 12.9 12.5 22.3 12.5 14.5 0 26.2-11.7 26.2-26.1 0-9.5-5-17.8-12.5-22.4z" fill="#3E67A6" /><path d="M441.7 543.8c-25.5 0-46.2 20.7-46.2 46.2 0 25.5 20.7 46.2 46.2 46.2 25.5 0 46.2-20.7 46.2-46.2 0-25.6-20.7-46.2-46.2-46.2z" fill="#8081BE" /><path d="M446.8 576.1c0 10.7-8.6 19.3-19.3 19.3-10.7 0-19.3-8.6-19.3-19.3 0-10.7 8.6-19.3 19.3-19.3 10.6-0.1 19.3 8.6 19.3 19.3z" fill="#8081BE" /><path d="M464.5 553.3c4 6.6 6.4 14.3 6.4 22.6 0 23.9-19.4 43.2-43.2 43.2-8.3 0-16-2.3-22.6-6.4 7.6 12.4 21.3 20.6 36.8 20.6 23.9 0 43.2-19.3 43.2-43.2 0-15.5-8.2-29.2-20.6-36.8z" fill="#C0C0C0" /><path d="M702.5 499.6c-18.1 0-32.7 14.7-32.7 32.7 0 18.1 14.6 32.7 32.7 32.7s32.7-14.6 32.7-32.7c0-18-14.6-32.7-32.7-32.7z" fill="#8081BE" /><path d="M706.1 522.5c0 7.6-6.1 13.7-13.7 13.7s-13.7-6.1-13.7-13.7 6.1-13.7 13.7-13.7 13.7 6.2 13.7 13.7z" fill="#8081BE" /><path d="M718.6 506.4c2.9 4.7 4.5 10.2 4.5 16 0 16.9-13.7 30.6-30.6 30.6-5.9 0-11.4-1.6-16-4.5 5.4 8.8 15.1 14.6 26.1 14.6 16.9 0 30.6-13.7 30.6-30.6 0-11-5.8-20.7-14.6-26.1z" fill="#C0C0C0" /></svg>