<?xml version="1.0" standalone="no"?><!DOCTYPE svg PUBLIC "-//W3C//DTD SVG 1.1//EN" "http://www.w3.org/Graphics/SVG/1.1/DTD/svg11.dtd"><svg class="icon" width="200px" height="200.00px" viewBox="0 0 1024 1024" version="1.1" xmlns="http://www.w3.org/2000/svg"><path d="M510.7 511.6m-448.1 0a448.1 448.1 0 1 0 896.2 0 448.1 448.1 0 1 0-896.2 0Z" fill="#AADCDA" /><path d="M737.1 769.5c0 33.1-100.8 60-225.2 60-124.4 0-225.2-26.9-225.2-60s100.8-60 225.2-60c124.4 0 225.2 26.9 225.2 60z" fill="#58595B" /><path d="M605.8 718.9c0 74.2-42.1 73.5-94.1 73.5-51.9 0-94.1 0.7-94.1-73.5s42.1-203.7 94.1-203.7c52 0 94.1 129.4 94.1 203.7z" fill="#B57969" /><path d="M380 618.2c-38.3 73.2-65.1 75.6-92.6 68-27.6-7.6-56.9-30.8-7.2-95.6 61.7-80.3 118.2-177.2 145.7-169.6 27.6 7.7-7.6 124-45.9 197.2zM529 624.3c-3.1 80.7-26.7 92.3-55.4 94.9-28.7 2.6-65.9-8.6-48.5-85.5 21.5-95.4 31-204.2 59.7-206.8 28.6-2.6 47.2 116.7 44.2 197.4z" fill="#4AB4AE" /><path d="M383.4 503.1c22.7-78.1 48.7-84.9 77.3-81.8 28.6 3 62.2 21.1 26.5 92.8-44.4 89-80.2 193.3-108.9 190.3-28.6-3-17.6-123.1 5.1-201.3zM661.9 632.2c34.8 61 57.6 62.3 80.7 55.1 23.1-7.2 47.1-27.6 2.9-81.1-55-66.3-106-146.8-129-139.7-23.2 7.3 10.6 104.8 45.4 165.7z" fill="#4AB4AE" /><path d="M563.3 506.2c-22.7-78.2-48.6-84.8-77.3-81.8-28.6 3-62.2 21.2-26.5 92.9 44.4 88.9 80.1 193.3 108.8 190.3 28.8-3.2 17.8-123.2-5-201.4z" fill="#4AB4AE" /><path d="M581 635.4c13.2 63.3 33.3 69.9 56.3 69 23-1 50.8-13.7 26.9-72.5-29.7-72.9-51.6-157.7-74.6-156.7-22.9 1-21.7 97-8.6 160.2z" fill="#4AB4AE" /><path d="M753.7 617c2.2 19.1-11.9 28.4-25.6 32.7-20.3 6.3-40.3 5.5-69.6-41.5 15.1 46.1-9 56.6-29 57.4-19.2 0.8-36.3-4.1-48.5-47.1-0.2 28.6-4.9 48.8-16.1 50-11.9 1.3-25.2-17.3-39.9-45.7-7.3 46.7-26.5 54.7-49 56.7-24.2 2.2-54.9-6.1-48.8-60.4-14.9 28.9-28.3 47.9-40.3 46.6-11.3-1.2-16.1-21.9-16.2-50.9-26.9 39.2-47.8 39.8-69.1 33.9-18.1-5-36.9-17.2-30.7-44.8-36.2 54.8-9 75.3 16.6 82.4 22.8 6.3 45.1 5.7 73.8-36.2 0.1 30.9 5.1 53 17.2 54.3 12.8 1.4 27.1-18.9 43-49.7-6.4 57.9 26.3 66.8 52.1 64.5 24-2.2 44.4-10.7 52.3-60.5 15.7 30.3 29.8 50.1 42.5 48.8 12-1.3 17-22.9 17.2-53.4 13 45.9 31.3 51.2 51.7 50.3 21.4-0.9 47.1-12.1 31-61.3 31.3 50.2 52.6 51 74.2 44.3 21.6-6.7 43.8-24.9 11.2-70.4z" fill="#2F8681" /><path d="M690.4 554c19.7 33.5 31.8 62.4 27.2 64.6-4.6 2.2-24.3-23.3-44-56.9-19.6-33.5-31.8-62.5-27.1-64.7 4.6-2.1 24.3 23.4 43.9 57zM328.9 553.3c-24 31.2-39.9 58.7-35.6 61.3 4.3 2.6 27.2-20.6 51.2-51.8 24-31.2 39.9-58.7 35.6-61.3-4.3-2.7-27.3 20.5-51.2 51.8z" fill="#2F8681" /><path d="M404.9 555.6c-12.3 36.2-18.3 66.7-13.3 68 5 1.3 19-26.9 31.4-63.1 12.3-36.2 18.3-66.6 13.3-68-5.1-1.4-19.1 26.9-31.4 63.1zM469.5 566.3c-9.3 36.9-12.6 67.7-7.5 68.7 5 1 16.7-28.1 26-65 9.2-36.9 12.6-67.7 7.5-68.7s-16.7 28.1-26 65zM552.5 566.3c9.2 36.9 12.6 67.7 7.5 68.7s-16.7-28.1-26-65c-9.2-36.9-12.6-67.7-7.5-68.7s16.8 28.1 26 65zM613.7 560.6c11.1 36.6 16 67.1 11 68.4-5 1.2-18.1-27.4-29.2-63.9-11.1-36.5-16-67.1-10.9-68.4 4.9-1.2 18 27.5 29.1 63.9z" fill="#2F8681" /><path d="M434.2 479.6c-38.3 73.2-65.1 75.6-92.7 68-27.6-7.6-56.9-30.8-7.1-95.6 61.7-80.3 118.1-177.2 145.7-169.6 27.6 7.6-7.6 123.9-45.9 197.2z" fill="#4AB4AE" /><path d="M561.5 477.1c0.7 80.7-22.3 93.2-50.9 96.9-28.5 3.7-66.3-6.1-52.6-83.6 17-96.2 21.3-205.2 49.8-208.9 28.6-3.6 52.9 114.9 53.7 195.6z" fill="#4AB4AE" /><path d="M421.2 364.5c22.7-78.2 48.6-84.9 77.3-81.9 28.6 3.1 62.2 21.2 26.5 92.9-44.4 88.9-80.1 193.3-108.8 190.3-28.6-3.1-17.7-123.1 5-201.3z" fill="#4AB4AE" /><path d="M581.7 479.6c38.3 73.2 65.1 75.6 92.7 68 27.6-7.6 56.9-30.8 7.2-95.6-61.8-80.3-118.2-177.2-145.7-169.6-27.7 7.6 7.5 123.9 45.8 197.2z" fill="#4AB4AE" /><path d="M591.8 361.9c-22.7-78.2-48.6-84.9-77.3-81.9-28.7 3-62.2 21.1-26.5 92.8 44.4 89 80.1 193.3 108.8 190.3 28.7-2.9 17.8-123-5-201.2z" fill="#4AB4AE" /><path d="M695.9 473.2c2.8 23.9-14.8 34.8-31.7 39.5-18.2 5-35.9 5.3-57.3-18.5-1.8 19.4-6.6 32.2-15.4 33.2-10.9 1.1-22.9-14.2-36.1-38.4-6.6 38.3-24.3 45.9-45 48.5-22.4 2.9-50.7-3.1-52-47.4-13.4 24.9-25.6 40.7-36.7 39.6-8.8-0.9-13.6-13.6-15.4-32.7-20.2 21.1-37.4 20.5-54.7 15.7-16.9-4.7-34.5-15.6-31.7-39.5-28.4 48.8-2.8 67.6 21.5 74.4 18.5 5.1 36.7 5.7 58.3-16.8 1.9 20.4 7.1 33.9 16.4 34.8 11.7 1.3 24.7-15.6 39-42.1 1.4 47.1 31.5 53.5 55.4 50.4 22.1-2.8 40.8-11 47.9-51.7 14.1 25.8 26.8 42.1 38.4 40.9 9.4-1 14.6-14.7 16.4-35.3 22.8 25.4 41.7 25 61.1 19.7 24.3-6.6 50-25.5 21.6-74.3z" fill="#2F8681" /><path d="M638.3 417.5c19.6 33.6 31.8 62.5 27.1 64.6-4.6 2.1-24.3-23.3-43.9-56.9-19.7-33.5-31.9-62.5-27.2-64.6 4.6-2.1 24.3 23.4 44 56.9z" fill="#2F8681" /><path d="M574.4 416.3c9.7 36.8 13.5 67.6 8.3 68.6-5.1 1.1-17-27.9-26.7-64.8-9.7-36.8-13.5-67.6-8.3-68.6 5.1-1.1 17 28 26.7 64.8z" fill="#2F8681" /><path d="M376.5 424.4c-23.5 31.5-39.1 59.1-34.7 61.7 4.4 2.6 26.9-20.9 50.5-52.4s39.2-59.1 34.8-61.7c-4.4-2.6-27.1 20.9-50.6 52.4z" fill="#2F8681" /><path d="M434.4 422.6c-19.2 33.7-31 62.8-26.3 64.9 4.7 2.1 24-23.6 43.2-57.3 19.2-33.7 31-62.8 26.4-64.9-4.7-2.1-24 23.5-43.3 57.3zM512.4 420.8c-2 4.4-4.5 7.1-7.8 7.6-3.5 0.5-7-1.1-10.4-4.4-0.1 5.8 0 11.9 0.2 18.2 1.2 33.9 6.5 61.3 11.9 61.2 5.3-0.1 8.7-27.6 7.5-61.5-0.3-7.4-0.8-14.5-1.4-21.1z" fill="#2F8681" /><path d="M506.5 371c-25.8 60.7-57.5 61.7-92.8 54.2-35.4-7.5-95.7-47.3-35.2-81.4 60.5-34 93.2-146 128.6-138.4 35.3 7.5 25.2 104.9-0.6 165.6z" fill="#4AB4AE" /><path d="M501 371c25.8 60.7 57.4 61.7 92.8 54.2s95.7-47.3 35.2-81.4c-60.5-34-93.2-146-128.6-138.4-35.3 7.5-25.2 104.9 0.6 165.6z" fill="#4AB4AE" /><path d="M644.9 355.4c-8 18.1-35.9 32.9-55.7 37.1-26.8 5.7-51.4 6.2-72.6-23.2-2.2 14.8-5.4 25.1-12.1 26.2-6.8 1.1-13.6-6.4-19.7-18.7-19.8 21.7-42.3 20.8-66.6 15.7-19.7-4.2-47.7-19-55.7-37.1-31.4 31 19.8 63.2 51.1 69.8 25.6 5.5 49.2 6.4 70.1-16.5 6.4 12.9 13.6 20.8 20.8 19.7 7-1.1 10.5-11.9 12.7-27.6 22.4 30.9 48.3 30.4 76.5 24.4 31.5-6.6 82.6-38.8 51.2-69.8zM551.7 275.6c19.7 33.6 54.4 62.5 49.7 64.6-4.6 2.2-46.8-23.3-66.4-56.9-19.6-33.5-31.8-67.5-27.2-69.6 4.6-2.1 24.2 28.4 43.9 61.9z" fill="#2F8681" /><path d="M537.4 307.3c15.9 35.1 50 59.4 45.1 61.1-4.8 1.8-46.8-19.7-62.7-54.8-15.8-35.1-24.2-70-19.4-71.7 4.9-1.7 21.1 30.4 37 65.4z" fill="#2F8681" /><path d="M448.8 315.5c24.5-30.9 32.5-68.1 28.2-70.8-4.2-2.7-19.2 30.2-43.7 61.1-24.5 30.9-57.8 48.1-53.6 50.8 4.3 2.6 44.6-10.2 69.1-41.1z" fill="#2F8681" /><path d="M482.3 318.1c14.3-35.6 10.9-73.4 5.9-75-4.9-1.6-9.4 33.7-23.7 69.3-14.4 35.6-41.3 60.1-36.3 61.7 4.9 1.6 39.8-20.4 54.1-56z" fill="#2F8681" /><path d="M595.2 293.2c-7.9-3.4-12.9-11.9-18.1-17.8-7.1-8.1-15.2-14.5-21.7-23.1-13-17.5-25.4-36.7-36.7-55.1-14.4-23.5-45 30.9-56.3 42.8-6.7 7.2-12.7 14.6-18.3 22.5-6.8 9.6-12.3 22.5-23.8 28.4-14.3 7.5-1.4 27.3 13 19.8 9.5-4.9 16-12.2 21.8-20-1 2.6-2 5.2-2.9 7.9-3.2 9.2 6.7 15.3 15.8 14.1 17.7-2.4 16.4-18.3 22.8-29.5 1.5-2.6 3.2-5 5-7.3-1.9 6.5-3.4 12.9-0.2 19.6 4.3 9.1 16.8 11.6 23.5 2.7 3.5-4.7 5-10 5.8-15.4 4.3 4.9 9.4 9.1 13.9 13.8 7.1 7.6 17.5 2.8 20.5-4.5 7.9 8.1 11.4 16 22.8 20.9 15 6.3 28.1-13.4 13.1-19.8z" fill="#F7F7F7" /><path d="M456.1 286.2c0.9-2.4 1.8-4.8 2.8-7.2-5.4 7.2-11.6 13.8-20.4 18.4-6.7 3.4-13.2 0.6-16.2-3.9-6.2 8 4.5 20.9 16.2 14.9 7.6-3.9 13.2-9.3 18-15.3-1.1-2-1.3-4.3-0.4-6.9zM496.9 265.5c-1.7 2.1-3.2 4.3-4.6 6.7-5.9 10.2-4.7 24.7-21.4 26.9-5.3 0.7-10.9-1.3-13.7-4.8-0.4 1-0.8 1.9-1.1 3-2.9 8.4 6.3 14 14.8 12.9 16.6-2.1 15.4-16.7 21.4-26.9 0.9-1.5 1.9-3 2.9-4.4-0.7-4.6 0.4-9 1.7-13.4zM577.9 299.4c-10.7-4.4-14-11.7-21.4-19-2.8 6.7-12.6 11.1-19.3 4.1-4.2-4.3-9-8.2-13-12.7-0.8 5-2.1 9.8-5.5 14.1-6.3 8.1-18 5.9-22-2.5-0.4-0.8-0.7-1.7-1-2.5-1 4.5-1.3 9 1 13.5 4 8.3 15.8 10.6 22 2.5 3.3-4.3 4.7-9.1 5.5-14 4 4.4 8.8 8.3 13 12.7 6.7 6.9 16.4 2.5 19.3-4.2 7.4 7.4 10.7 14.6 21.4 19.1 12.2 5.1 23.1-8 16.4-15.3-3.3 4.2-9.6 7.1-16.4 4.2z" fill="#94A7AC" /></svg>