<?xml version="1.0" standalone="no"?><!DOCTYPE svg PUBLIC "-//W3C//DTD SVG 1.1//EN" "http://www.w3.org/Graphics/SVG/1.1/DTD/svg11.dtd"><svg class="icon" width="200px" height="200.00px" viewBox="0 0 1024 1024" version="1.1" xmlns="http://www.w3.org/2000/svg"><path d="M510.7 511.6m-448.1 0a448.1 448.1 0 1 0 896.2 0 448.1 448.1 0 1 0-896.2 0Z" fill="#AADCDA" /><path d="M815.4 752.8c0 44.3-134.8 80.2-301 80.2-166.3 0-301-35.9-301-80.2 0-44.3 134.8-80.2 301-80.2s301 35.9 301 80.2z" fill="#58595B" /><path d="M491.8 330.4s43.4 129-17.8 176.2c-61.2 47.2-165.5 60.8-178.6 155.4-13.2 94.6 51.7 176.8 224.7 100.1 173-76.7 241.8-128.6 238.2-215-3.6-86.3-77.2-269.7-96.8-289 0 0-173.8 57.9-169.7 72.3z" fill="#8081BE" /><path d="M646.3 480.9c-61.9 60.3-63.5 159.2-3.8 221.5 83.9-48.4 118.7-92.7 116.1-154.7-1.2-29-10.3-69-22.6-110-32.7 4.2-64.3 18.5-89.7 43.2zM595.5 708.2c0.5-0.3 0.9-0.6 1.2-1 2.8-2.7 3.3-7 1.1-10.4-5.7-8.8-10.8-18.1-14.9-27.7-1.8-4.2-6.7-6.1-10.8-4.3-4.1 1.8-6.1 6.7-4.2 10.8 4.5 10.5 10 20.6 16.3 30.2 2.4 3.8 7.5 4.9 11.3 2.4zM551.4 609.5c0.9 11.4 2.7 22.8 5.5 33.8 1.1 4.4 5.6 7.1 10 6 1.5-0.4 2.7-1.1 3.7-2.1 2-2 3-4.9 2.3-7.9-2.5-10.1-4.2-20.6-5-31.1-0.3-4.5-4.3-7.9-8.8-7.6-4.7 0.4-8.1 4.4-7.7 8.9zM559.1 584.2c2.5 0.2 4.8-0.7 6.5-2.3 1.3-1.3 2.2-3.1 2.4-5.2 0.9-10.5 2.8-20.9 5.4-31 1.1-4.4-1.5-8.9-5.9-10-4.4-1.2-8.9 1.5-10 5.9-2.9 11-4.8 22.3-5.8 33.7-0.5 4.5 2.8 8.5 7.4 8.9zM607.1 464.3c3.3 3.1 8.5 3.1 11.6-0.4 7.1-7.5 15.1-14.7 23.4-21 0.2-0.2 0.5-0.4 0.8-0.7 2.9-2.9 3.3-7.5 0.8-10.8-2.8-3.6-7.9-4.3-11.5-1.6-9 6.8-17.7 14.6-25.5 22.8-3 3.4-2.9 8.6 0.4 11.7zM719.1 399.8c0.5 3.7 3.4 6.3 6.9 6.8-1.5-4.6-3.1-9.1-4.6-13.6-1.7 1.8-2.7 4.2-2.3 6.8zM599.1 488.5c2.5-3.8 1.5-8.9-2.3-11.4-3.8-2.6-8.9-1.5-11.4 2.2-6.4 9.5-11.9 19.6-16.6 29.9-1.9 4.1 0 9 4.1 10.9 3.2 1.4 6.8 0.7 9.1-1.6 0.7-0.7 1.3-1.5 1.8-2.5 4.3-9.5 9.5-18.7 15.3-27.5zM661.2 411.5c-4 2.1-5.6 7.1-3.5 11.1 2.1 4 7.1 5.6 11.1 3.5 9.3-4.8 19-8.9 29-12.2 1.2-0.4 2.3-1.1 3.2-1.9 2.2-2.1 3.1-5.4 2.1-8.4-1.4-4.3-6-6.7-10.4-5.3-10.8 3.5-21.5 7.9-31.5 13.2z" fill="#F3F4F5" /><path d="M314.7 670.7c1.4-0.4 2.7-1.1 3.7-2.1 2.1-2 3-5 2.2-7.9-1.1-4.4-5.6-7-10-5.9-4.9 1.2-9.7 2.8-14.4 4.5-0.2 1.1-0.4 2.2-0.5 3.3-0.7 5.1-1.2 10.2-1.4 15.2 6.6-2.8 13.4-5.3 20.4-7.1zM406.7 676.4c9.7 3.8 19 8.6 27.6 14.4 3.3 2.2 7.6 1.7 10.3-1 0.4-0.4 0.8-0.9 1.1-1.4 2.5-3.8 1.5-8.9-2.3-11.4-9.6-6.4-19.9-11.8-30.7-16-4.2-1.7-9 0.4-10.7 4.7-1.6 4.2 0.5 9 4.7 10.7zM507.3 757.8c-1.6-4.3-6.3-6.4-10.6-4.9-4.3 1.6-6.5 6.3-4.9 10.6 1.1 3.1 2 6.4 3 9.6 5-1.9 10.1-3.9 15.3-6.1-0.8-3.1-1.6-6.2-2.8-9.2zM344.9 649.7c-4.5 0.2-8.1 4-7.9 8.6 0.2 4.5 4 8.1 8.6 7.9 10.4-0.4 20.9 0.2 31.1 1.9 2.7 0.5 5.3-0.4 7.1-2.2 1.2-1.2 2.1-2.7 2.4-4.5 0.7-4.5-2.3-8.7-6.8-9.5-11.4-2-23-2.7-34.5-2.2zM491.6 727.2c-6.2-9.7-13.8-18.5-21.9-26.8l-0.4-0.5c-3.2-3.3-7.7-3.5-11-0.3-3.2 3.2-2.7 8.2 0.5 11.5 7.3 7.5 13.8 15.7 19.3 24.5 2.4 3.8 7.5 5 11.4 2.6 0.5-0.3 0.9-0.7 1.3-1.1 2.7-2.7 2.9-6.6 0.8-9.9z" fill="#F3F4F5" /><path d="M517.1 370.6c1.1-0.4 2-1 2.8-1.8 2.3-2.2 3.1-5.7 1.9-8.9-1.6-4.2-6.4-6.3-10.6-4.7l-11.5 4.4c1.1 5 2.2 10.5 3.2 16.4l14.2-5.4zM664.5 295.8c-4.2 1.6-6.3 6.4-4.7 10.6 1.6 4.2 6.4 6.3 10.6 4.7l16.4-6.4c-2.4-5.4-4.7-10.3-6.9-15l-15.4 6.1zM581.3 345c2.3-2.2 3.2-5.7 1.9-8.8-1.6-4.2-6.4-6.4-10.6-4.7l-30.7 11.9c-4.2 1.6-6.4 6.4-4.7 10.7 1.6 4.2 6.4 6.3 10.6 4.7l30.7-11.9c1.1-0.5 2-1.1 2.8-1.9zM603.2 319.6c-4.2 1.6-6.3 6.4-4.7 10.6 1.6 4.2 6.4 6.3 10.7 4.7l30.7-11.9c1.1-0.4 2-1 2.8-1.8a8.1 8.1 0 0 0 1.9-8.9c-1.6-4.2-6.4-6.3-10.6-4.7l-30.8 12z" fill="#F3F4F5" /><path d="M661.8 258.7s-25.9 8.6-57.4 20.1c24 42.6 74.9 176.8 77.7 244.2 3.2 76.5-57.7 122.5-211.1 190.5-87.3 38.7-143.5 31.7-173.6 3.1 15.4 67.1 84.5 107.5 223 46.1 173-76.7 241.8-128.6 238.2-214.9-3.6-86.4-77.2-269.8-96.8-289.1z" fill="#DDDCDC" /><path d="M696.5 216.1c9 20.9-0.6 45.1-21.5 54l-188.8 81.3c-20.9 9-45-0.7-54-21.5-9-20.9 0.6-45.1 21.5-54l188.8-81.3c20.9-9 45 0.7 54 21.5z" fill="#F3F4F5" /><path d="M664.2 191.7c5.9 4.2 10.7 10 13.8 17.1 9 20.9-0.6 45-21.5 54l-188.8 81.3c-7.1 3.1-14.5 3.9-21.7 2.9 11.3 8.2 26.5 10.4 40.3 4.4L675 270.2c20.9-9 30.5-33.2 21.5-54-5.9-13.8-18.5-22.7-32.3-24.5z" fill="#DDDCDC" /></svg>