<?xml version="1.0" standalone="no"?><!DOCTYPE svg PUBLIC "-//W3C//DTD SVG 1.1//EN" "http://www.w3.org/Graphics/SVG/1.1/DTD/svg11.dtd"><svg class="icon" width="200px" height="200.00px" viewBox="0 0 1024 1024" version="1.1" xmlns="http://www.w3.org/2000/svg"><path d="M510.7 511.6m-448.1 0a448.1 448.1 0 1 0 896.2 0 448.1 448.1 0 1 0-896.2 0Z" fill="#AADCDA" /><path d="M290.4 787a222.8 44.6 0 1 0 445.6 0 222.8 44.6 0 1 0-445.6 0Z" fill="#58595B" /><path d="M513.2 313.3c-130.8 0-236.9 106-236.9 236.9 0 130.8 106 236.9 236.9 236.9C644 787 750 680.9 750 550.1S644 313.3 513.2 313.3z" fill="#4AB4AE" /><path d="M539.2 478.9c0 54.7-44.4 99.1-99.1 99.1-54.7 0-99.1-44.4-99.1-99.1 0-54.7 44.4-99.1 99.1-99.1 54.7 0 99.1 44.4 99.1 99.1z" fill="#4AB4AE" /><path d="M630.2 362.3C651 396 663 435.7 663 478.2c0 122.4-99.3 221.7-221.7 221.7-42.5 0-82.2-12-115.9-32.7 39 63.4 109 105.7 189 105.7 122.4 0 221.7-99.3 221.7-221.7-0.1-79.9-42.4-149.9-105.9-188.9zM513.2 313.3c-22.2 0-43.8 3.1-64.2 8.9 7.9 8.8 33.6 15.3 64.2 15.3 30.5 0 56.3-6.5 64.2-15.3-20.5-5.8-42-8.9-64.2-8.9z" fill="#2F8681" /><path d="M458.1 274.4v44.1c0 6.8 24.6 12.3 55.1 12.3 30.4 0 55.1-5.5 55.1-12.3v-44.1H458.1z" fill="#B2B2B3" /><path d="M552.8 259.6c-14.1-5.9-12-9.5-17.3-17.7-5.4-8.3-17.5-9-22.4-9-4.9 0-17 0.8-22.4 9-5.3 8.3-3.2 11.8-17.3 17.7-14.1 5.9-15.4 10.8-15.4 14.9s55.1 4.5 55.1 4.5 55.1-0.4 55.1-4.5-1.3-9-15.4-14.9z" fill="#B2B2B3" /><path d="M513.2 282.2c-26.8 0-49-4.5-52.3-10.2-0.3 0.5-0.5 1-0.5 1.5 0 6.5 23.7 11.8 52.8 11.8 29.2 0 52.8-5.3 52.8-11.8 0-0.5-0.2-1-0.5-1.5-3.4 5.7-25.5 10.2-52.3 10.2z" fill="#E5E5E5" /><path d="M534 329.9c6.8-0.6 12.9-1.5 18-2.7V285c-5.1 1.1-11.2 2-18 2.7v42.2z" fill="#E5E5E5" /><path d="M525.8 330.5c2-0.1 3.9-0.2 5.8-0.4v-42.3c-1.9 0.2-3.8 0.3-5.8 0.4v42.3z" fill="#989897" /><path d="M463.6 323.9c6.9 3.2 19.8 5.6 35.5 6.5v-42.3c-15.7-0.9-28.5-3.3-35.5-6.5v42.3zM531.7 240.2c0 2.2-8.3 2.8-18.6 2.8s-18.6-0.6-18.6-2.8c0-2.2 8.3-6 18.6-6s18.6 3.8 18.6 6z" fill="#E5E5E5" /><path d="M533 243s3.4 8.3 8.2 12.9c4.8 4.5 19.3 9.2 21.4 12.3 2.1 3.1-2.8 12.4-48.5 12.4 0 0 52.5-4.9 36.9-13.2-15.7-8.4-18-24.4-18-24.4z" fill="#989897" /><path d="M513.2 192.8c-6.7 0-12.1 10.6-12.1 23.7 0 6.9 1.5 13.1 4 17.4 0.6-0.3 1.2-0.6 2-0.6 0.1 0 0.2 0 0.2 0.1-2.3-3.9-3.8-10-3.8-16.9 0-11.9 4.3-21.5 9.7-21.5 5.3 0 9.7 9.6 9.7 21.5s-4.3 21.5-9.7 21.5c-0.1 0-0.2-0.1-0.3-0.1 0.2 0.7 0.2 1.5 0 2.2 0.1 0 0.2 0.1 0.3 0.1 6.7 0 12.1-10.6 12.1-23.7s-5.4-23.7-12.1-23.7z" fill="#989897" /></svg>